<?xml version="1.0" encoding="utf-8"?>
<!-- Generator: Adobe Illustrator 23.0.1, SVG Export Plug-In . SVG Version: 6.00 Build 0)  -->
<svg version="1.1" id="Camada_1" xmlns="http://www.w3.org/2000/svg" xmlns:xlink="http://www.w3.org/1999/xlink" x="0px" y="0px"
	 viewBox="0 0 841.89 595.28" style="enable-background:new 0 0 841.89 595.28;" xml:space="preserve">
<style type="text/css">
	.st0{fill:#E7C0BE;}
</style>
<g>
	<path class="st0" d="M81.54,361.75c0-54.7,0.02-109.41-0.07-164.11c0-2.26,0.59-2.55,2.64-2.55c92.7,0.06,185.4,0.05,278.1,0.05
		c0.51,0.83,0.29,1.75,0.29,2.62c0.01,53.87,0.01,107.74,0.01,161.62c0,0.79,0.11,1.59-0.17,2.36c-1.03,0.57-2.15,0.29-3.22,0.29
		c-71.55,0.02-143.1,0.01-214.65,0.01c-4.16,0-4.57-0.32-4.59-4.59c-0.09-16.22-0.09-32.44,0-48.66c0.02-4.7,0.54-5.19,5.12-5.19
		c49.26-0.04,98.52-0.03,147.78-0.01c0.8,0,1.59,0.01,2.39,0.08c2.93,0.26,3.73,0.95,3.88,3.83c0.24,4.67,0.23,9.35,0.01,14.03
		c-0.14,2.93-0.93,3.66-3.79,3.92c-1.88,0.17-3.78,0.11-5.67,0.11c-40,0-80.01,0-120.01,0.01c-6.78,0-7.15,0.37-7.16,7.02
		c-0.02,8.01-0.01,8.02,7.91,8.02c54.63,0,109.27,0,163.9,0c7.21,0,7.46-0.24,7.46-7.31c0-36.52,0-73.04,0-109.57
		c0-1,0.02-1.99-0.03-2.98c-0.17-3.28-1.11-4.25-4.33-4.43c-1.19-0.07-2.39-0.03-3.58-0.03c-74.44,0-148.87,0-223.31,0
		c-7.66,0-7.73,0.08-7.73,7.6c0,36.42,0,72.84,0,109.27c0,0.9-0.01,1.79,0.02,2.69c0.12,3.79,0.99,4.68,4.87,4.75
		c4.38,0.09,8.76-0.09,13.13,0.09c3.77,0.15,4.49,0.87,4.6,4.69c0.13,4.57,0.16,9.15-0.04,13.73c-0.08,1.82-0.73,2.97-2.87,2.97
		c-13.33-0.05-26.67,0.01-40-0.04C82.06,362.03,81.81,361.87,81.54,361.75"/>
	<path class="st0" d="M325.27,241.82c0-1.89-0.07-3.79-0.89-5.55c-2.43-5.22-6.61-7.23-12.25-7.22
		c-60.4,0.06-120.79,0.03-181.19,0.04c-0.7,0-1.39-0.01-2.09,0.03c-6.33,0.36-10.94,5.12-10.96,11.48
		c-0.04,12.54,0.01,25.07-0.03,37.61c-0.01,2.72,0.81,5.09,2.46,7.18c2.7,3.42,6.39,4.4,10.59,4.39c30.15-0.04,60.3-0.02,90.45-0.02
		c30.35,0,60.7,0.01,91.04-0.01c8.2-0.01,12.82-4.55,12.86-12.7C325.33,265.31,325.28,253.56,325.27,241.82 M180.51,262.33
		c0,0.38-0.07,0.74-0.11,1.11l9.56,4.16l-5.52,8.9l-7.98-5.89c-0.67,0.53-1.39,0.26-2.19,0.62l0.7,9.42h-10.33l0.86-9.45
		c-0.78-0.36-1.48-0.45-2.14-0.97l-8.08,6.09l-5.42-8.81l9.57-4.12c-0.04-0.37-0.11-0.7-0.11-1.08c0-0.44,0.08-0.86,0.13-1.28
		l-9.59-4.21l5.42-8.9l8.31,5.96c0.61-0.45,1.25-0.39,1.94-0.7l-0.89-10h10.33l-0.73,9.97c0.71,0.32,1.37,0.49,1.98,0.95l8.21-6.06
		l5.52,8.84l-9.57,4.18C180.43,261.49,180.51,261.88,180.51,262.33 M282.53,259.84c0,0.38-0.07,0.74-0.11,1.11l9.55,4.16l-5.52,8.9
		l-7.98-5.89c-0.67,0.53-1.39,0.47-2.19,0.82l0.7,9.62h-10.33l0.86-9.66c-0.78-0.36-1.48-0.55-2.14-1.07l-8.08,6.04l-5.42-8.83
		l9.57-4.14c-0.04-0.37-0.11-0.71-0.11-1.09c0-0.44,0.08-0.86,0.13-1.29l-9.59-4.21l5.42-8.9l8.31,5.96c0.6-0.45,1.25-0.18,1.94-0.5
		l-0.89-9.8h10.33l-0.73,9.77c0.71,0.32,1.37,0.39,1.98,0.85l8.21-6.11l5.52,8.81l-9.57,4.17
		C282.45,259.01,282.53,259.39,282.53,259.84"/>
	<path class="st0" d="M425.7,194.84c26.28,0,37.28,13.38,37.28,38.23v13.62c0,17.57-4.93,28.82-17.86,33.75
		c-0.59,0.23-0.58,1.06,0.01,1.27c13.79,4.9,18.09,16.06,18.09,37.99v22.33c0,7.13-0.08,13.5-0.08,19.39c0,0.38-0.31,0.68-0.68,0.68
		h-17.21c-0.38,0-0.68-0.31-0.68-0.69c0-5.41,0.02-8.84,0.02-19.62v-26.28c0-18.88-8.84-24.85-24.37-24.85h-14.54
		c-0.38,0-0.68,0.31-0.68,0.68v70.08c0,0.38-0.31,0.68-0.68,0.68h-17.27c-0.38,0-0.68-0.31-0.68-0.68v-165.9
		c0-0.38,0.31-0.68,0.68-0.68H425.7z M420.92,273.7c14.81,0,23.66-4.78,23.66-22.94v-16.01c0-15.05-5.5-22.94-19.35-22.94h-19.93
		c-0.17,0-0.31,0.14-0.31,0.31v61.26c0,0.17,0.14,0.31,0.31,0.31H420.92z"/>
	<path class="st0" d="M563.41,235.23v14.46c0,0.33-0.26,0.59-0.59,0.59h-16.5c-0.33,0-0.59-0.26-0.59-0.59v-15.42
		c0-15.05-10.14-24.13-23.76-24.13c-13.38,0-19.59,9.08-19.59,24.13v88.41c0,15.05,6.21,24.13,19.59,24.13
		c13.62,0,23.76-9.08,23.76-24.13v-21.15c0-0.33,0.26-0.59,0.59-0.59h16.5c0.33,0,0.59,0.26,0.59,0.59v20.2
		c0,25.33-16.11,42.05-41.92,42.05c-25.57,0-37.51-16.73-37.51-42.05v-86.5c0-25.33,11.95-42.05,37.51-42.05
		C547.3,193.17,563.41,209.9,563.41,235.23"/>
	<path class="st0" d="M728.98,194.84c26.05,0,38.4,12.43,38.4,37.04v7.89c0,17.05-6.6,27.87-20.13,32.7
		c-0.46,0.16-0.45,0.83,0.02,0.99c15.22,4.92,22.98,17.57,22.98,35.37v14.1c0,25.09-14.27,39.19-40.31,39.19h-38.99
		c-0.29,0-0.52-0.23-0.52-0.52V195.37c0-0.29,0.24-0.52,0.52-0.52H728.98z M724.44,265.81c14.81,0,24.54-4.78,24.54-22.22v-9.8
		c0-14.81-7.1-21.98-20.48-21.98h-18.92c-0.29,0-0.52,0.23-0.52,0.52v52.95c0,0.29,0.24,0.52,0.52,0.52H724.44z M729.93,345.14
		c13.62,0,21.92-7.17,21.92-22.7v-14.81c0-18.64-9.49-24.85-25.5-24.85h-16.77c-0.29,0-0.52,0.24-0.52,0.52v61.32
		c0,0.29,0.24,0.52,0.52,0.52H729.93z"/>
	<path class="st0" d="M621.19,283.61l-18.04,22.3c-0.08,0.1-0.13,0.24-0.13,0.37v55.35c0,0.33-0.26,0.59-0.59,0.59h-17.46
		c-0.33,0-0.59-0.26-0.59-0.59V195.56c0-0.33,0.26-0.59,0.59-0.59h17.46c0.33,0,0.59,0.26,0.59,0.59v78.01c0,0.6,0.79,0.82,1.1,0.3
		l46.3-78.61c0.11-0.18,0.3-0.29,0.51-0.29h20.64c0.46,0,0.74,0.49,0.51,0.89l-43.86,75.34"/>
	<polyline class="st0" points="625.92,254.01 676.94,362.23 656.78,362.23 614.69,272.41 	"/>
</g>
</svg>
